<svg width="60" height="60" viewBox="0 0 60 60" fill="none" xmlns="http://www.w3.org/2000/svg">
<path d="M41.5099 27.62C43.0326 25.0252 43.6901 22.0133 43.3874 19.02C42.9399 14.56 40.4499 10.6175 36.3799 7.91998L33.6174 12.085C36.4149 13.94 38.1174 16.5825 38.4124 19.52C38.5485 20.8852 38.3785 22.2636 37.9149 23.5549C37.4513 24.8462 36.7058 26.018 35.7324 26.985L32.7524 29.965L36.7974 31.1525C47.3774 34.2525 47.4999 44.8925 47.4999 45H52.4999C52.4999 40.5275 50.1099 31.7875 41.5099 27.62Z" fill="#9A9A9A"/>
<path d="M23.75 30C29.265 30 33.75 25.515 33.75 20C33.75 14.485 29.265 10 23.75 10C18.235 10 13.75 14.485 13.75 20C13.75 25.515 18.235 30 23.75 30ZM23.75 15C26.5075 15 28.75 17.2425 28.75 20C28.75 22.7575 26.5075 25 23.75 25C20.9925 25 18.75 22.7575 18.75 20C18.75 17.2425 20.9925 15 23.75 15ZM27.5 32.5H20C11.7275 32.5 5 39.2275 5 47.5V50H10V47.5C10 41.985 14.485 37.5 20 37.5H27.5C33.015 37.5 37.5 41.985 37.5 47.5V50H42.5V47.5C42.5 39.2275 35.7725 32.5 27.5 32.5Z" fill="#9A9A9A"/>
</svg>
