<svg width="24" height="24" viewBox="0 0 24 24" fill="none" xmlns="http://www.w3.org/2000/svg">
<path d="M19 14C20.49 12.54 22 10.79 22 8.5C22 7.04131 21.4205 5.64236 20.3891 4.61091C19.3576 3.57946 17.9587 3 16.5 3C14.74 3 13.5 3.5 12 5C10.5 3.5 9.26 3 7.5 3C6.04131 3 4.64236 3.57946 3.61091 4.61091C2.57946 5.64236 2 7.04131 2 8.5C2 10.8 3.5 12.55 5 14L12 21L19 14Z" stroke="#F04747" stroke-width="2" stroke-linecap="round" stroke-linejoin="round"/>
<rect x="3" y="4" width="18" height="9" fill="#F04747"/>
<rect x="10" y="9" width="4" height="11" fill="#F04747"/>
<rect x="8" y="12" width="8" height="6" fill="#F04747"/>
<rect x="5" y="11" width="14" height="4" fill="#F04747"/>
<rect x="7" y="14" width="10" height="3" fill="#F04747"/>
</svg>
