<svg width="61" height="60" viewBox="0 0 61 60" fill="none" xmlns="http://www.w3.org/2000/svg">
<path d="M50.1875 7.5H10.8125C7.8825 7.5 5.5 9.7425 5.5 12.5V47.5C5.5 50.2575 7.8825 52.5 10.8125 52.5H50.1875C53.1175 52.5 55.5 50.2575 55.5 47.5V12.5C55.5 9.7425 53.1175 7.5 50.1875 7.5ZM50.1875 47.5H10.8125C10.67 47.5 10.5725 47.46 10.53 47.46C10.5125 47.46 10.5025 47.465 10.5 47.48L10.47 12.615C10.4875 12.59 10.6 12.5 10.8125 12.5H50.1875C50.385 12.5025 50.4925 12.57 50.5 12.52L50.53 47.385C50.5125 47.41 50.4 47.5 50.1875 47.5Z" fill="#9A9A9A"/>
<path d="M15.5 17.5H30.5V32.5H15.5V17.5ZM33 37.5H15.5V42.5H45.5V37.5H35.5H33ZM35.5 27.5H45.5V32.5H35.5V27.5ZM35.5 17.5H45.5V22.5H35.5V17.5Z" fill="#9A9A9A"/>
</svg>
