<svg width="60" height="60" viewBox="0 0 60 60" fill="none" xmlns="http://www.w3.org/2000/svg">
<path d="M40 30V15C40 9.45751 35.5375 4.94751 30.0525 4.94751C29.8765 4.94857 29.7013 4.96953 29.53 5.01001C26.9631 5.13446 24.5423 6.24089 22.7684 8.10039C20.9946 9.95988 20.0034 12.4301 20 15V30C20 35.515 24.485 40 30 40C35.515 40 40 35.515 40 30ZM25 30V15C25 12.2425 27.2425 10 30 10C30.1367 10.0001 30.2731 9.9875 30.4075 9.96251C32.97 10.15 35 12.3375 35 15V30C35 32.7575 32.7575 35 30 35C27.2425 35 25 32.7575 25 30Z" fill="#9A9A9A"/>
<path d="M15 30H10C10 40.18 17.6525 48.59 27.5 49.8275V55H32.5V49.8275C42.3475 48.59 50 40.1825 50 30H45C45 38.2725 38.2725 45 30 45C21.7275 45 15 38.2725 15 30Z" fill="#9A9A9A"/>
</svg>
