<svg width="180" height="180" viewBox="0 0 180 180" fill="none" xmlns="http://www.w3.org/2000/svg">
<g clip-path="url(#clip0_12_2)">
<rect width="180" height="180" fill="white"/>
<rect width="180" height="180" fill="#748E63"/>
<path d="M46.7812 45.5625H49.1836V64.8203C49.1836 66.9557 48.7344 68.7331 47.8359 70.1523C46.9375 71.5716 45.7266 72.6328 44.2031 73.3359C42.6927 74.0391 41.0195 74.3906 39.1836 74.3906C37.2956 74.3906 35.5964 74.0391 34.0859 73.3359C32.5755 72.6328 31.3776 71.5716 30.4922 70.1523C29.6198 68.7331 29.1836 66.9557 29.1836 64.8203V45.5625H31.5664V64.8203C31.5664 66.474 31.8919 67.8607 32.543 68.9805C33.194 70.1003 34.0924 70.9401 35.2383 71.5C36.3841 72.0599 37.6992 72.3398 39.1836 72.3398C40.6549 72.3398 41.9635 72.0599 43.1094 71.5C44.2552 70.9401 45.1536 70.1003 45.8047 68.9805C46.4557 67.8607 46.7812 66.474 46.7812 64.8203V45.5625ZM39.2812 92.418H31.1758V90.3672H39.2812C40.974 90.3672 42.3477 90.0938 43.4023 89.5469C44.4701 88.987 45.2448 88.2318 45.7266 87.2812C46.2214 86.3307 46.4688 85.263 46.4688 84.0781C46.4688 82.9193 46.2214 81.8516 45.7266 80.875C45.2448 79.8984 44.4701 79.1172 43.4023 78.5312C42.3477 77.9323 40.974 77.6328 39.2812 77.6328H32.0156V104H29.6133V75.5625H39.2812C41.3646 75.5625 43.1159 75.9206 44.5352 76.6367C45.9674 77.3529 47.0482 78.349 47.7773 79.625C48.5065 80.901 48.8711 82.3724 48.8711 84.0391C48.8711 85.7839 48.5065 87.2878 47.7773 88.5508C47.0482 89.8008 45.974 90.7578 44.5547 91.4219C43.1354 92.0859 41.3776 92.418 39.2812 92.418ZM49.5459 106.984V134H47.2451L31.7148 110.918V134H29.4326V106.984H31.7148L47.2822 130.066V106.984H49.5459Z" fill="white"/>
<path d="M70.0488 60.0938H71.7441L79.0996 77.6211L86.4688 60.0938H88.1504L79.7422 80H78.457L70.0488 60.0938ZM69.5293 60.0938H71.0195L71.1973 71.3047V80H69.5293V60.0938ZM87.207 60.0938H88.6973V80H87.0156V71.3047L87.207 60.0938ZM92.4707 72.8359V72.3848C92.4707 71.3092 92.6257 70.3158 92.9355 69.4043C93.2454 68.4928 93.6875 67.7044 94.2617 67.0391C94.8451 66.3737 95.5423 65.8587 96.3535 65.4941C97.1647 65.1204 98.0671 64.9336 99.0605 64.9336C100.063 64.9336 100.97 65.1204 101.781 65.4941C102.592 65.8587 103.29 66.3737 103.873 67.0391C104.456 67.7044 104.903 68.4928 105.213 69.4043C105.523 70.3158 105.678 71.3092 105.678 72.3848V72.8359C105.678 73.9115 105.523 74.9049 105.213 75.8164C104.903 76.7188 104.456 77.5026 103.873 78.168C103.299 78.8333 102.606 79.3529 101.795 79.7266C100.984 80.0911 100.081 80.2734 99.0879 80.2734C98.0853 80.2734 97.1784 80.0911 96.3672 79.7266C95.556 79.3529 94.8587 78.8333 94.2754 78.168C93.6921 77.5026 93.2454 76.7188 92.9355 75.8164C92.6257 74.9049 92.4707 73.9115 92.4707 72.8359ZM94.0977 72.3848V72.8359C94.0977 73.6471 94.207 74.4173 94.4258 75.1465C94.6445 75.8665 94.9635 76.5091 95.3828 77.0742C95.8021 77.6302 96.3216 78.0677 96.9414 78.3867C97.5612 78.7057 98.2767 78.8652 99.0879 78.8652C99.89 78.8652 100.596 78.7057 101.207 78.3867C101.827 78.0677 102.346 77.6302 102.766 77.0742C103.185 76.5091 103.499 75.8665 103.709 75.1465C103.928 74.4173 104.037 73.6471 104.037 72.8359V72.3848C104.037 71.5827 103.928 70.8216 103.709 70.1016C103.499 69.3815 103.18 68.7389 102.752 68.1738C102.333 67.6087 101.813 67.1621 101.193 66.834C100.574 66.5059 99.8626 66.3418 99.0605 66.3418C98.2585 66.3418 97.5475 66.5059 96.9277 66.834C96.3171 67.1621 95.7975 67.6087 95.3691 68.1738C94.9499 68.7389 94.6309 69.3815 94.4121 70.1016C94.2025 70.8216 94.0977 71.5827 94.0977 72.3848ZM109.041 59H110.682V77.1289L110.572 80H109.041V59ZM120.977 72.4668V72.7539C120.977 73.8568 120.849 74.8685 120.594 75.7891C120.339 76.7096 119.969 77.5072 119.486 78.1816C119.003 78.847 118.411 79.362 117.709 79.7266C117.016 80.0911 116.219 80.2734 115.316 80.2734C114.432 80.2734 113.648 80.1367 112.965 79.8633C112.281 79.5807 111.698 79.1842 111.215 78.6738C110.732 78.1543 110.344 77.5482 110.053 76.8555C109.761 76.1536 109.556 75.3835 109.438 74.5449V70.8945C109.574 70.0013 109.793 69.1901 110.094 68.4609C110.395 67.7318 110.782 67.1029 111.256 66.5742C111.739 66.0456 112.313 65.64 112.979 65.3574C113.653 65.0749 114.423 64.9336 115.289 64.9336C116.191 64.9336 116.993 65.1113 117.695 65.4668C118.406 65.8132 119.003 66.319 119.486 66.9844C119.969 67.6406 120.339 68.4336 120.594 69.3633C120.849 70.2839 120.977 71.3184 120.977 72.4668ZM119.322 72.7539V72.4668C119.322 71.6009 119.24 70.7988 119.076 70.0605C118.912 69.3223 118.652 68.6797 118.297 68.1328C117.951 67.5768 117.504 67.1439 116.957 66.834C116.41 66.5241 115.754 66.3691 114.988 66.3691C114.204 66.3691 113.535 66.5013 112.979 66.7656C112.432 67.0208 111.976 67.3626 111.611 67.791C111.256 68.2103 110.973 68.6706 110.764 69.1719C110.554 69.6732 110.399 70.1654 110.299 70.6484V74.9004C110.454 75.584 110.723 76.2266 111.105 76.8281C111.488 77.4297 112.003 77.9173 112.65 78.291C113.298 78.6556 114.086 78.8379 115.016 78.8379C115.763 78.8379 116.406 78.6829 116.943 78.373C117.49 78.0632 117.937 77.6348 118.283 77.0879C118.639 76.541 118.898 75.8984 119.062 75.1602C119.236 74.4219 119.322 73.6198 119.322 72.7539ZM126.418 65.207V80H124.791V65.207H126.418ZM124.504 60.9277C124.504 60.6178 124.6 60.3581 124.791 60.1484C124.992 59.9297 125.265 59.8203 125.611 59.8203C125.958 59.8203 126.231 59.9297 126.432 60.1484C126.641 60.3581 126.746 60.6178 126.746 60.9277C126.746 61.2285 126.641 61.4883 126.432 61.707C126.231 61.9167 125.958 62.0215 125.611 62.0215C125.265 62.0215 124.992 61.9167 124.791 61.707C124.6 61.4883 124.504 61.2285 124.504 60.9277ZM132.707 59V80H131.08V59H132.707ZM142.893 80.2734C141.926 80.2734 141.038 80.0957 140.227 79.7402C139.424 79.3848 138.723 78.8835 138.121 78.2363C137.529 77.5892 137.068 76.8236 136.74 75.9395C136.421 75.0462 136.262 74.071 136.262 73.0137V72.4258C136.262 71.2865 136.43 70.2565 136.768 69.3359C137.105 68.4154 137.57 67.627 138.162 66.9707C138.755 66.3145 139.429 65.8132 140.186 65.4668C140.951 65.1113 141.753 64.9336 142.592 64.9336C143.531 64.9336 144.365 65.1022 145.094 65.4395C145.823 65.7676 146.434 66.237 146.926 66.8477C147.427 67.4492 147.805 68.1647 148.061 68.9941C148.316 69.8145 148.443 70.7214 148.443 71.7148V72.7129H137.246V71.3184H146.816V71.127C146.798 70.2975 146.63 69.5228 146.311 68.8027C146.001 68.0736 145.536 67.4811 144.916 67.0254C144.296 66.5697 143.521 66.3418 142.592 66.3418C141.899 66.3418 141.261 66.4876 140.678 66.7793C140.104 67.071 139.607 67.4902 139.188 68.0371C138.777 68.5749 138.458 69.2174 138.23 69.9648C138.012 70.7031 137.902 71.5234 137.902 72.4258V73.0137C137.902 73.834 138.021 74.5996 138.258 75.3105C138.504 76.0124 138.85 76.6322 139.297 77.1699C139.753 77.7077 140.29 78.127 140.91 78.4277C141.53 78.7285 142.214 78.8789 142.961 78.8789C143.836 78.8789 144.611 78.7194 145.285 78.4004C145.96 78.0723 146.566 77.5573 147.104 76.8555L148.129 77.6484C147.81 78.1224 147.409 78.5599 146.926 78.9609C146.452 79.362 145.882 79.681 145.217 79.918C144.551 80.1549 143.777 80.2734 142.893 80.2734ZM76.2969 104.893H70.623V103.457H76.2969C77.4818 103.457 78.4434 103.266 79.1816 102.883C79.929 102.491 80.4714 101.962 80.8086 101.297C81.1549 100.632 81.3281 99.8841 81.3281 99.0547C81.3281 98.2435 81.1549 97.4961 80.8086 96.8125C80.4714 96.1289 79.929 95.582 79.1816 95.1719C78.4434 94.7526 77.4818 94.543 76.2969 94.543H71.2109V113H69.5293V93.0938H76.2969C77.7552 93.0938 78.9811 93.3444 79.9746 93.8457C80.9772 94.347 81.7337 95.0443 82.2441 95.9375C82.7546 96.8307 83.0098 97.8607 83.0098 99.0273C83.0098 100.249 82.7546 101.301 82.2441 102.186C81.7337 103.061 80.9818 103.73 79.9883 104.195C78.9948 104.66 77.7643 104.893 76.2969 104.893ZM85.3066 105.836V105.385C85.3066 104.309 85.4616 103.316 85.7715 102.404C86.0814 101.493 86.5234 100.704 87.0977 100.039C87.681 99.3737 88.3783 98.8587 89.1895 98.4941C90.0007 98.1204 90.903 97.9336 91.8965 97.9336C92.8991 97.9336 93.806 98.1204 94.6172 98.4941C95.4284 98.8587 96.1257 99.3737 96.709 100.039C97.2923 100.704 97.7389 101.493 98.0488 102.404C98.3587 103.316 98.5137 104.309 98.5137 105.385V105.836C98.5137 106.911 98.3587 107.905 98.0488 108.816C97.7389 109.719 97.2923 110.503 96.709 111.168C96.1348 111.833 95.4421 112.353 94.6309 112.727C93.8197 113.091 92.9173 113.273 91.9238 113.273C90.9212 113.273 90.0143 113.091 89.2031 112.727C88.3919 112.353 87.6947 111.833 87.1113 111.168C86.528 110.503 86.0814 109.719 85.7715 108.816C85.4616 107.905 85.3066 106.911 85.3066 105.836ZM86.9336 105.385V105.836C86.9336 106.647 87.043 107.417 87.2617 108.146C87.4805 108.867 87.7995 109.509 88.2188 110.074C88.638 110.63 89.1576 111.068 89.7773 111.387C90.3971 111.706 91.1126 111.865 91.9238 111.865C92.7259 111.865 93.4323 111.706 94.043 111.387C94.6628 111.068 95.1823 110.63 95.6016 110.074C96.0208 109.509 96.3353 108.867 96.5449 108.146C96.7637 107.417 96.873 106.647 96.873 105.836V105.385C96.873 104.583 96.7637 103.822 96.5449 103.102C96.3353 102.382 96.0163 101.739 95.5879 101.174C95.1686 100.609 94.6491 100.162 94.0293 99.834C93.4095 99.5059 92.6986 99.3418 91.8965 99.3418C91.0944 99.3418 90.3835 99.5059 89.7637 99.834C89.153 100.162 88.6335 100.609 88.2051 101.174C87.7858 101.739 87.4668 102.382 87.248 103.102C87.0384 103.822 86.9336 104.583 86.9336 105.385ZM111.516 110.129V92H113.156V113H111.625L111.516 110.129ZM101.248 105.754V105.467C101.248 104.318 101.38 103.284 101.645 102.363C101.909 101.434 102.287 100.641 102.779 99.9844C103.281 99.319 103.882 98.8132 104.584 98.4668C105.286 98.1113 106.079 97.9336 106.963 97.9336C107.829 97.9336 108.594 98.0749 109.26 98.3574C109.925 98.64 110.495 99.0456 110.969 99.5742C111.452 100.103 111.839 100.732 112.131 101.461C112.432 102.19 112.65 103.001 112.787 103.895V107.545C112.678 108.383 112.477 109.154 112.186 109.855C111.894 110.548 111.507 111.154 111.023 111.674C110.54 112.184 109.957 112.581 109.273 112.863C108.599 113.137 107.82 113.273 106.936 113.273C106.061 113.273 105.272 113.091 104.57 112.727C103.868 112.362 103.271 111.847 102.779 111.182C102.287 110.507 101.909 109.71 101.645 108.789C101.38 107.868 101.248 106.857 101.248 105.754ZM102.889 105.467V105.754C102.889 106.62 102.975 107.422 103.148 108.16C103.322 108.898 103.586 109.541 103.941 110.088C104.297 110.635 104.748 111.063 105.295 111.373C105.842 111.683 106.489 111.838 107.236 111.838C108.175 111.838 108.964 111.66 109.602 111.305C110.24 110.94 110.75 110.462 111.133 109.869C111.516 109.268 111.794 108.611 111.967 107.9V103.648C111.857 103.165 111.698 102.673 111.488 102.172C111.279 101.671 110.992 101.21 110.627 100.791C110.271 100.363 109.816 100.021 109.26 99.7656C108.713 99.5013 108.048 99.3691 107.264 99.3691C106.507 99.3691 105.855 99.5241 105.309 99.834C104.762 100.144 104.306 100.577 103.941 101.133C103.586 101.68 103.322 102.322 103.148 103.061C102.975 103.799 102.889 104.601 102.889 105.467ZM122.918 111.865C123.611 111.865 124.258 111.738 124.859 111.482C125.47 111.218 125.971 110.831 126.363 110.32C126.764 109.801 126.992 109.167 127.047 108.42H128.605C128.56 109.359 128.273 110.197 127.744 110.936C127.225 111.665 126.541 112.239 125.693 112.658C124.855 113.068 123.93 113.273 122.918 113.273C121.888 113.273 120.977 113.087 120.184 112.713C119.4 112.339 118.743 111.82 118.215 111.154C117.686 110.48 117.285 109.696 117.012 108.803C116.747 107.9 116.615 106.93 116.615 105.891V105.316C116.615 104.277 116.747 103.311 117.012 102.418C117.285 101.516 117.686 100.732 118.215 100.066C118.743 99.3919 119.4 98.8678 120.184 98.4941C120.967 98.1204 121.874 97.9336 122.904 97.9336C123.962 97.9336 124.91 98.1478 125.748 98.5762C126.596 99.0046 127.27 99.6107 127.771 100.395C128.282 101.178 128.56 102.108 128.605 103.184H127.047C127.001 102.391 126.792 101.707 126.418 101.133C126.044 100.559 125.552 100.117 124.941 99.8066C124.331 99.4967 123.652 99.3418 122.904 99.3418C122.066 99.3418 121.35 99.5059 120.758 99.834C120.165 100.153 119.682 100.595 119.309 101.16C118.944 101.716 118.675 102.354 118.502 103.074C118.329 103.785 118.242 104.533 118.242 105.316V105.891C118.242 106.684 118.324 107.44 118.488 108.16C118.661 108.871 118.93 109.505 119.295 110.061C119.669 110.617 120.152 111.059 120.744 111.387C121.346 111.706 122.07 111.865 122.918 111.865ZM140.896 110.348V102.719C140.896 102.017 140.751 101.411 140.459 100.9C140.167 100.39 139.739 99.998 139.174 99.7246C138.609 99.4512 137.911 99.3145 137.082 99.3145C136.316 99.3145 135.633 99.4512 135.031 99.7246C134.439 99.9889 133.969 100.349 133.623 100.805C133.286 101.251 133.117 101.748 133.117 102.295L131.477 102.281C131.477 101.725 131.613 101.188 131.887 100.668C132.16 100.148 132.548 99.6836 133.049 99.2734C133.55 98.8633 134.147 98.5397 134.84 98.3027C135.542 98.0566 136.312 97.9336 137.15 97.9336C138.208 97.9336 139.137 98.1113 139.939 98.4668C140.751 98.8223 141.384 99.3555 141.84 100.066C142.296 100.777 142.523 101.671 142.523 102.746V109.896C142.523 110.407 142.56 110.936 142.633 111.482C142.715 112.029 142.829 112.48 142.975 112.836V113H141.238C141.129 112.672 141.042 112.262 140.979 111.77C140.924 111.268 140.896 110.794 140.896 110.348ZM141.279 104.387L141.307 105.645H138.094C137.255 105.645 136.503 105.722 135.838 105.877C135.182 106.023 134.626 106.242 134.17 106.533C133.714 106.816 133.363 107.158 133.117 107.559C132.88 107.96 132.762 108.415 132.762 108.926C132.762 109.454 132.894 109.938 133.158 110.375C133.432 110.812 133.814 111.163 134.307 111.428C134.808 111.683 135.4 111.811 136.084 111.811C136.995 111.811 137.798 111.642 138.49 111.305C139.192 110.967 139.771 110.525 140.227 109.979C140.682 109.432 140.988 108.835 141.143 108.188L141.854 109.131C141.735 109.587 141.516 110.056 141.197 110.539C140.887 111.013 140.482 111.46 139.98 111.879C139.479 112.289 138.887 112.626 138.203 112.891C137.529 113.146 136.763 113.273 135.906 113.273C134.94 113.273 134.097 113.091 133.377 112.727C132.666 112.362 132.11 111.865 131.709 111.236C131.317 110.598 131.121 109.878 131.121 109.076C131.121 108.347 131.276 107.695 131.586 107.121C131.896 106.538 132.342 106.046 132.926 105.645C133.518 105.234 134.229 104.924 135.059 104.715C135.897 104.496 136.836 104.387 137.875 104.387H141.279ZM155.771 109.227C155.771 108.826 155.671 108.429 155.471 108.037C155.27 107.645 154.883 107.285 154.309 106.957C153.743 106.629 152.91 106.351 151.807 106.123C150.986 105.941 150.253 105.736 149.605 105.508C148.967 105.28 148.43 105.007 147.992 104.688C147.555 104.368 147.222 103.986 146.994 103.539C146.766 103.092 146.652 102.564 146.652 101.953C146.652 101.406 146.771 100.891 147.008 100.408C147.254 99.916 147.6 99.4876 148.047 99.123C148.503 98.7493 149.049 98.4577 149.688 98.248C150.335 98.0384 151.059 97.9336 151.861 97.9336C153.001 97.9336 153.976 98.1296 154.787 98.5215C155.607 98.9043 156.232 99.4284 156.66 100.094C157.098 100.759 157.316 101.511 157.316 102.35H155.689C155.689 101.839 155.539 101.356 155.238 100.9C154.947 100.445 154.514 100.071 153.939 99.7793C153.374 99.4876 152.682 99.3418 151.861 99.3418C151.014 99.3418 150.326 99.4694 149.797 99.7246C149.268 99.9798 148.881 100.303 148.635 100.695C148.398 101.087 148.279 101.493 148.279 101.912C148.279 102.24 148.329 102.541 148.43 102.814C148.539 103.079 148.73 103.325 149.004 103.553C149.286 103.781 149.688 103.995 150.207 104.195C150.727 104.396 151.401 104.592 152.23 104.783C153.424 105.048 154.4 105.371 155.156 105.754C155.922 106.128 156.487 106.592 156.852 107.148C157.216 107.695 157.398 108.361 157.398 109.145C157.398 109.755 157.271 110.316 157.016 110.826C156.76 111.327 156.391 111.76 155.908 112.125C155.434 112.49 154.86 112.772 154.186 112.973C153.52 113.173 152.773 113.273 151.943 113.273C150.695 113.273 149.637 113.068 148.771 112.658C147.915 112.239 147.263 111.692 146.816 111.018C146.379 110.334 146.16 109.609 146.16 108.844H147.787C147.842 109.609 148.083 110.215 148.512 110.662C148.94 111.1 149.464 111.41 150.084 111.592C150.713 111.774 151.333 111.865 151.943 111.865C152.782 111.865 153.484 111.742 154.049 111.496C154.614 111.25 155.042 110.926 155.334 110.525C155.626 110.124 155.771 109.691 155.771 109.227ZM166.695 98.207V99.5469H159.285V98.207H166.695ZM162.006 94.4062H163.633V109.404C163.633 110.088 163.724 110.603 163.906 110.949C164.089 111.296 164.326 111.528 164.617 111.646C164.909 111.765 165.223 111.824 165.561 111.824C165.807 111.824 166.044 111.811 166.271 111.783C166.499 111.747 166.704 111.71 166.887 111.674L166.955 113.055C166.755 113.118 166.495 113.169 166.176 113.205C165.857 113.251 165.538 113.273 165.219 113.273C164.59 113.273 164.034 113.16 163.551 112.932C163.068 112.695 162.689 112.294 162.416 111.729C162.143 111.154 162.006 110.375 162.006 109.391V94.4062Z" fill="white"/>
<line x1="60.25" y1="47.9872" x2="60.25" y2="126.013" stroke="white" stroke-width="0.5"/>
</g>
<defs>
<clipPath id="clip0_12_2">
<rect width="180" height="180" fill="white"/>
</clipPath>
</defs>
</svg>
